<?xml version="1.0" encoding="utf-8"?>
<!-- Generator: Adobe Illustrator 26.0.2, SVG Export Plug-In . SVG Version: 6.00 Build 0)  -->
<svg version="1.1" id="Layer_1" xmlns="http://www.w3.org/2000/svg" xmlns:xlink="http://www.w3.org/1999/xlink" x="0px" y="0px"
	 viewBox="0 0 172.06 136.51" style="enable-background:new 0 0 172.06 136.51;" xml:space="preserve">
<style type="text/css">
	.st0{fill:#FFFFFF;}
	.st1{fill:none;stroke:#FBB03B;stroke-width:4;stroke-miterlimit:10;}
	.st2{fill:#29C1E2;}
	.st3{fill:none;stroke:#00A99D;stroke-width:4;stroke-miterlimit:10;}
	.st4{fill:#FBB03B;}
	.st5{fill:none;stroke:#FFFFFF;stroke-miterlimit:10;}
</style>
<path class="st0" d="M66.64,68.54l-6.05-31.67c-0.08-0.42,0.84-0.8,2.05-0.85h0c1.21-0.05,2.26,0.25,2.34,0.67l6.05,31.67
	c0.08,0.42-0.84,0.8-2.05,0.85h0C67.76,69.26,66.72,68.96,66.64,68.54z"/>
<path class="st0" d="M118.09,65.74l-5.83-48.32c-0.16-1.36,1.04-2.51,2.69-2.57l0.06,0c1.65-0.06,3.12,1,3.28,2.36l5.83,48.32
	c0.16,1.36-1.04,2.51-2.69,2.57l-0.06,0C119.72,68.15,118.25,67.1,118.09,65.74z"/>
<path class="st0" d="M121.93,5.74l-8.73,9.83c-0.83,0.94-0.15,1.96,1.51,2.3l0,0c1.67,0.33,3.69-0.15,4.52-1.09l8.73-9.83
	c0.83-0.94,0.15-1.96-1.51-2.3l0,0C124.78,4.32,122.76,4.81,121.93,5.74z"/>
<path class="st0" d="M69.45,65.37l47.5-18.33c1.16-0.45,2.53-0.04,3.07,0.91v0c0.54,0.95,0.04,2.08-1.11,2.53l-47.5,18.33
	c-1.16,0.45-2.53,0.04-3.07-0.91l0,0C67.8,66.95,68.3,65.82,69.45,65.37z"/>
<path class="st0" d="M49.14,61.9l9.79-22.55c0.13-0.3,1.14-0.21,2.26,0.19l0,0c1.12,0.4,1.92,0.98,1.79,1.27l-9.79,22.55
	c-0.13,0.3-1.14,0.21-2.26-0.19l0,0C49.81,62.77,49.01,62.2,49.14,61.9z"/>
<path class="st1" d="M6.35,101.2c0-18.28,14.82-33.1,33.1-33.1s33.1,14.82,33.1,33.1"/>
<circle class="st2" cx="39.45" cy="101.2" r="28.39"/>
<path class="st3" d="M172.06,105.57"/>
<path class="st1" d="M107.13,103.22c0-18.28,14.82-33.1,33.1-33.1"/>
<circle class="st2" cx="138.96" cy="103.22" r="28.39"/>
<path class="st4" d="M73.99,40.62H52.6c-1.29,0-2.34-1.05-2.34-2.34v0c0-1.29,1.05-2.34,2.34-2.34h21.39c1.29,0,2.34,1.05,2.34,2.34
	v0C76.33,39.57,75.28,40.62,73.99,40.62z"/>
<path class="st4" d="M131.56,10.93H95.83c-2.19,0-3.97-1.78-3.97-3.97v0c0-2.19,1.78-3.97,3.97-3.97h35.73
	c2.19,0,3.97,1.78,3.97,3.97v0C135.53,9.15,133.75,10.93,131.56,10.93z"/>
<line class="st5" x1="29.86" y1="78.1" x2="48.16" y2="125.53"/>
<line class="st5" x1="62.38" y1="90.2" x2="17.2" y2="113.5"/>
<line class="st5" x1="48.15" y1="77.56" x2="31.07" y2="125.43"/>
<line class="st5" x1="64.08" y1="108.94" x2="15.07" y2="95.46"/>
<line class="st5" x1="129.25" y1="79.78" x2="147.55" y2="127.2"/>
<line class="st5" x1="161.77" y1="91.87" x2="116.59" y2="115.18"/>
<line class="st5" x1="147.54" y1="79.23" x2="130.46" y2="127.11"/>
<line class="st5" x1="163.47" y1="110.62" x2="114.46" y2="97.13"/>
</svg>
