<?xml version="1.0" encoding="utf-8"?>
<!-- Generator: Adobe Illustrator 26.0.2, SVG Export Plug-In . SVG Version: 6.00 Build 0)  -->
<svg version="1.1" id="Layer_1" xmlns="http://www.w3.org/2000/svg" xmlns:xlink="http://www.w3.org/1999/xlink" x="0px" y="0px"
	 viewBox="0 0 172.06 136.51" style="enable-background:new 0 0 172.06 136.51;" xml:space="preserve">
<style type="text/css">
	.st0{fill:#29C1E2;stroke:#000000;stroke-width:3;stroke-miterlimit:10;}
	.st1{fill:none;stroke:#00A99D;stroke-width:4;stroke-miterlimit:10;}
	.st2{fill:#29C1E2;}
	.st3{fill:none;stroke:#29C1E2;stroke-width:5;stroke-miterlimit:10;}
	.st4{fill:none;stroke:#29C1E2;stroke-miterlimit:10;}
	.st5{fill:#FFFFFF;}
</style>
<circle class="st0" cx="41.05" cy="102.15" r="27.94"/>
<path class="st1" d="M166.3,106.45"/>
<circle class="st0" cx="133.73" cy="104.14" r="27.94"/>
<path class="st2" d="M132.2,49.54H35.9V26.36C35.9,16.22,44.12,8,54.26,8h46.57c17.33,0,31.38,14.05,31.38,31.38V49.54z"/>
<path class="st2" d="M168.8,68.97H3.26v0c0-16.19,13.12-29.31,29.31-29.31h129.12c3.93,0,7.12,3.19,7.12,7.12V68.97z"/>
<path class="st3" d="M6.47,102.15c0-19.1,15.48-34.59,34.59-34.59s34.59,15.48,34.59,34.59"/>
<path class="st3" d="M97.62,102.15c0-19.1,15.48-34.59,34.59-34.59s34.59,15.48,34.59,34.59"/>
<rect x="74.2" y="65.12" class="st2" width="23.01" height="36.94"/>
<polyline class="st2" points="137.58,57.08 152.97,57.77 152.29,73.16 "/>
<polyline class="st2" points="52.18,63.94 76.88,65.03 75.76,90.13 "/>
<polyline class="st2" points="118.9,64.82 95.49,65.86 96.62,91.33 "/>
<polyline class="st2" points="3.89,102.15 3.89,68.97 23.27,68.97 "/>
<polyline class="st2" points="168.8,102.15 168.8,67.56 149.43,67.56 "/>
<polyline class="st2" points="10.76,57.08 26.15,57.77 25.47,73.16 "/>
<line class="st4" x1="3.57" y1="68.14" x2="3.57" y2="102.06"/>
<path class="st5-W1" d="M74.59,38.61H56.07c-1.76,0-3.18-1.43-3.18-3.18V20.35c0-1.76,1.43-3.18,3.18-3.18h18.53
	c1.76,0,3.18,1.43,3.18,3.18v15.07C77.78,37.19,76.35,38.61,74.59,38.61z"/>
<path class="st5-W1" d="M112.92,38.61H94.4c-1.76,0-3.18-1.43-3.18-3.18V20.35c0-1.76,1.43-3.18,3.18-3.18h18.53
	c1.76,0,3.18,1.43,3.18,3.18v15.07C116.1,37.19,114.68,38.61,112.92,38.61z"/>
<path d="M68.66,103.07v3.89h-17.6c-1.61,3.35-4.85,5.76-8.69,6.22v16.58h-3.89v-16.81c-3.29-0.77-6.01-3.01-7.44-5.99h-17.6v-3.89
	h16.54c-0.03-0.3-0.04-0.61-0.04-0.92c0-5.24,3.64-9.64,8.54-10.8V74.54h3.89v16.58c5.51,0.65,9.79,5.35,9.79,11.03
	c0,0.31-0.01,0.62-0.04,0.92H68.66z"/>
<path d="M161.34,105.06v3.89h-17.6c-1.61,3.35-4.85,5.76-8.69,6.22v16.58h-3.89v-16.81c-3.29-0.77-6.01-3.01-7.44-5.99h-17.6v-3.89
	h16.54c-0.03-0.3-0.04-0.61-0.04-0.92c0-5.24,3.64-9.64,8.54-10.8V76.53h3.89v16.58c5.51,0.65,9.79,5.35,9.79,11.03
	c0,0.31-0.01,0.62-0.04,0.92H161.34z"/>
</svg>
