<?xml version="1.0" encoding="utf-8"?>
<!-- Generator: Adobe Illustrator 26.0.2, SVG Export Plug-In . SVG Version: 6.00 Build 0)  -->
<svg version="1.1" xmlns="http://www.w3.org/2000/svg" xmlns:xlink="http://www.w3.org/1999/xlink" x="0px" y="0px"
	 viewBox="0 0 149.81 108.72" style="enable-background:new 0 0 149.81 108.72;" xml:space="preserve">
<style type="text/css">
	.st0-c{fill:#B5B5B5;}
	.st1-c{fill:#9D89CE;}
	.st2-c{fill:#66635A;}
	.st3-c{fill:#9ADDF4;}
	.st4-c{fill:#352F2A;}
	.st5-c{fill:#A09C90;}
	.st6-c{fill:#755DA3;}
	.st7-c{fill:#FFC722;}
	.st8-c{fill:#7DBFDB;}
	.st9-c{fill:#4B377A;}
	.st10-c{fill:#3C9EB5;}
	.st11-c{fill:#FFFFFF;}
	.st12-c{fill:#F24040;}
	.st13-c{fill:#95D8EF;}
	.st14-c{fill:#267D9B;}
	.st15-c{fill:#EAA306;}
	.st16-c{fill:#7A7872;}
	.st17-c{fill:#F9B712;}
	.st18-c{fill:#FF0029;}
	.st19-c{fill:#A6E4F4;}
	.st20-c{fill:#FFF275;}
	.st21-c{fill:#E2E2E2;}
	.st22-c{clip-path:url(#SVGID_00000172417209915632970470000003187184374927504560_);}
	.st23-c{fill:#E00026;}
	.st24-c{fill:#4188AF;}
	.st25-c{fill:#F86AFF;}
	.st26-c{fill:#1FCFFF;}
	.st27-c{fill:#35DD2A;}
	.st28-c{fill:#8E8A79;}
	.st29-c{fill:#B59B69;}
	.st30-c{fill:#2C6193;}
	.st31-c{fill:#18476D;}
	.st32-c{fill:#A3A3A3;}
	.st33-c{fill:#00DCF4;}
	.st34-c{fill:#81AA26;}
	.st35-c{fill:#89541F;}
	.st36-c{fill:#4C2909;}
	.st37-c{fill:#724216;}
	.st38-c{fill:#507712;}
	.st39-c{fill:#8CC63F;}
	.st40-c{fill:#ABE058;}
	.st41-c{fill:#21627F;}
	.st42-c{fill:#7A776E;}
</style>
<g id="quiz2-pic">
</g>
<g id="set">
	<path class="st16-c" d="M38.63,81.68c-1.52-1.46-4.65,1.8-2.81,3.33c1.84,1.53,8.59,4.33,14.06,3.48l0-0.96
		C44.98,87.02,40.06,83.04,38.63,81.68z"/>
	<path class="st4-c" d="M36.16,82.08c-0.76,0.69-1.04,1.62-0.64,2.09c0.41,0.47,1.35,0.29,2.11-0.4c0.76-0.69,1.04-1.63,0.64-2.09
		C37.87,81.21,36.92,81.39,36.16,82.08z"/>
	<path class="st21-c" d="M31.85,73.59c-0.52-1.89,1.32-4.77-1.58-5.34c-1.9-0.37-3.39,2.23-3.64,3.74c-2.01-8.65-11.93-7.01-8.31,0.27
		c-5.71-8.42-13.74,3.62-6.34,7.65c-4.17-1.15-11.31,1.74-7.16,7.37c2.51,3.41,7.93,1.29,8.29-2.57c-0.56,10.16,6.59,9.37,7.75,0.35
		c2.23,14.62,7.62-1.8,11.69-1.97l4.65-0.14C33.67,81.55,32.77,76.92,31.85,73.59z"/>
	<path class="st18-c" d="M142.86,75.53c-0.86-6.01-9.5-13.32-13.97-13.32h-8.45c-1.12-3.43-2.73-7.82-4.84-12.26
		c-2.63-5.52-5.48-9.95-8.49-13.15c-3.96-4.22-8.23-6.36-12.67-6.36H72.46c-9.7,0-17.59,8.06-17.59,17.98v14.47
		c-3.26,1.56-5.59,5.66-5.59,10.46c0,0.37,0.01,0.74,0.04,1.1c-4.17,0.89-6.55,2.38-6.55,4.82c0,2.16,1.86,3.58,5.18,4.49
		c0.13,3.7,2.46,6.65,5.33,6.65h86.8c2.95,0,5.34-3.12,5.34-6.96c0-0.52-0.05-1.04-0.13-1.53c1.13-0.72,1.73-1.59,1.73-2.65
		C147.02,77.6,145.54,76.4,142.86,75.53z"/>
	<g>
		<path class="st23-c" d="M54.87,48.42v14.47c-3.26,1.56-5.59,5.66-5.59,10.46c0,0.37,0.01,0.74,0.04,1.1
			c-4.17,0.89-6.55,2.38-6.55,4.82c0,2.16,1.86,3.58,5.18,4.49c0.13,3.7,2.46,6.65,5.33,6.65h13.08c-1.87-7.55-2.9-15.73-2.9-24.27
			c0-12.99,2.37-25.14,6.48-35.51C61.43,31.88,54.87,39.38,54.87,48.42z"/>
	</g>
	<path class="st24-c" d="M47.95,83.75c0.13,3.7,2.46,6.65,5.33,6.65h86.8c2.95,0,5.34-3.12,5.34-6.96c0-0.52-0.05-1.04-0.13-1.53
		c1.07-0.68,1.67-1.5,1.72-2.49H42.78C42.87,81.49,44.72,82.86,47.95,83.75z"/>
	<path class="st7-c" d="M145.86,77.11H44.36c-1.32,0-2.39,1.04-2.39,2.32c0,1.28,1.07,2.32,2.39,2.32h101.51
		c1.32,0,2.39-1.04,2.39-2.32C148.26,78.14,147.18,77.11,145.86,77.11z"/>
	<path class="st11-c" d="M71.13,75.82c-7.47,0-13.53,6.19-13.53,13.82s6.06,13.82,13.53,13.82c7.47,0,13.52-6.19,13.52-13.82
		S78.6,75.82,71.13,75.82z"/>
	<path class="st25-c" d="M71.13,77.11c-6.77,0-12.26,5.61-12.26,12.53c0,6.92,5.49,12.53,12.26,12.53c6.77,0,12.26-5.61,12.26-12.53
		C83.4,82.72,77.91,77.11,71.13,77.11z"/>
	<path class="st26-c" d="M71.13,82.75c-3.72,0-6.74,3.09-6.74,6.89c0,3.81,3.02,6.89,6.74,6.89s6.74-3.08,6.74-6.89
		C77.88,85.83,74.86,82.75,71.13,82.75z"/>
	<path class="st27-c" d="M71.13,86.29c-1.81,0-3.28,1.5-3.28,3.35c0,1.85,1.47,3.35,3.28,3.35c1.81,0,3.28-1.5,3.28-3.35
		C74.41,87.79,72.94,86.29,71.13,86.29z"/>
	<path class="st11-c" d="M122.69,75.82c-7.47,0-13.53,6.19-13.53,13.82s6.06,13.82,13.53,13.82s13.53-6.19,13.53-13.82
		S130.16,75.82,122.69,75.82z"/>
	<path class="st2-c5" d="M122.69,77.11c-6.77,0-12.27,5.61-12.27,12.53c0,6.92,5.49,12.53,12.27,12.53s12.26-5.61,12.26-12.53
		C134.95,82.72,129.46,77.11,122.69,77.11z"/>
	<path class="st26-c" d="M122.69,82.75c-3.72,0-6.74,3.09-6.74,6.89c0,3.81,3.02,6.89,6.74,6.89c3.72,0,6.74-3.08,6.74-6.89
		C129.43,85.83,126.41,82.75,122.69,82.75z"/>
	<path class="st27-c" d="M122.69,86.29c-1.81,0-3.28,1.5-3.28,3.35c0,1.85,1.47,3.35,3.28,3.35c1.81,0,3.28-1.5,3.28-3.35
		C125.97,87.79,124.5,86.29,122.69,86.29z"/>
	<path class="st4-c" d="M74.04,68.05h-8.33c-0.73,0-1.32,0.6-1.32,1.35c0,0.75,0.59,1.35,1.32,1.35h8.33c0.73,0,1.32-0.6,1.32-1.35
		C75.36,68.65,74.77,68.05,74.04,68.05z"/>
	<g>
		<path class="st19-c" d="M98.31,34.44H84.66V62.2h31.65c-0.87-3.11-2.04-6.85-3.49-10.57C109.73,43.79,104.72,34.44,98.31,34.44z"/>
		<path class="st19-c" d="M68.97,48.42V62.2h13.22V34.44h-1.96C74.02,34.44,68.97,40.71,68.97,48.42z"/>
	</g>
	<path class="st24-c" d="M140.74,66.58c-1.84,0.18-4.01,3.1-3.86,5.94c0.19,3.67,2.92,4.52,4.8,4.34c1.53-0.15,2.46-1.64,2.11-5.39
		C143.45,67.72,142.27,66.43,140.74,66.58z"/>
	<path class="st7-c" d="M141.63,66.83c-0.67,0.06-0.65,2.25-0.41,4.89c0.24,2.64,0.51,4.72,1.18,4.66c0.67-0.06,1.5-2.25,1.26-4.89
		C143.41,68.85,142.3,66.76,141.63,66.83z"/>
</g>
</svg>
