<?xml version="1.0" encoding="utf-8"?>
<!-- Generator: Adobe Illustrator 26.0.2, SVG Export Plug-In . SVG Version: 6.00 Build 0)  -->
<svg version="1.1" xmlns="http://www.w3.org/2000/svg" xmlns:xlink="http://www.w3.org/1999/xlink" x="0px" y="0px"
	 viewBox="0 0 383.33 87.29" style="enable-background:new 0 0 383.33 87.29;" xml:space="preserve">
<style type="text/css">
	.st0-L{fill:#B5B5B5;}
	.st1-L{fill:#9D89CE;}
	.st2-L{fill:#66635A;}
	.st3-L{fill:#9ADDF4;}
	.st4-L{fill:#352F2A;}
	.st5-L{fill:#A09C90;}
	.st6-L{fill:#755DA3;}
	.st7-L{fill:#FFC722;}
	.st8-L{fill:#7DBFDB;}
	.st9-L{fill:#4B377A;}
	.st10-L{fill:#3C9EB5;}
	.st11-L{fill:#FFFFFF;}
	.st12-L{fill:#F24040;}
	.st13-L{fill:#95D8EF;}
	.st14-L{fill:#267D9B;}
	.st15-L{fill:#EAA306;}
	.st16-L{fill:#7A7872;}
	.st17-L{fill:#F9B712;}
	.st18-L{fill:#FF0029;}
	.st19-L{fill:#A6E4F4;}
	.st20-L{fill:#FFF275;}
	.st21-L{fill:#E2E2E2;}
	.st22-L{clip-path:url(#SVGID_00000108997217316881284830000007816793488913957037_);}
	.st23-L{fill:#E00026;}
	.st24-L{fill:#4188AF;}
	.st25-L{fill:#4C2909;}
	.st26-L{fill:#89541F;}
	.st27-L{fill:#A5A39F;}
	.st28-L{clip-path:url(#SVGID_00000067939308949145217330000011737543188130604170_);}
	.st29-L{fill:#1F627F;}
	.st30-L{fill:#21627F;}
	.st31-L{fill:#8E8A79;}
	.st32-L{fill:#B59B69;}
	.st33-L{fill:#2C6193;}
	.st34-L{fill:#18476D;}
	.st35-L{fill:#A3A3A3;}
	.st36-L{fill:#81AA26;}
	.st37-L{fill:#724216;}
	.st38-L{fill:#507712;}
	.st39-L{fill:#8CC63F;}
	.st40-L{fill:#ABE058;}
	.st41-L{fill:#7A776E;}
</style>
<g id="Layer_LOGO">
</g>
<g id="set">
	<g>
		<g>
			<rect x="121.96" y="54.61" class="st0-L" width="7.96" height="2.99"/>
			<path class="st1-L" d="M119.39,26.7H21.99c-2.81,0-5.08,1.69-5.08,3.78v35.96h107.56V30.49C124.47,28.4,122.19,26.7,119.39,26.7z"
				/>
			<rect x="16.91" y="64.51" class="st2-L" width="107.56" height="1.94"/>
			<g>
				<rect x="36.59" y="32.02" class="st3-L" width="12.19" height="13.97"/>
				<rect x="50.44" y="32.02" class="st3-L" width="12.19" height="13.97"/>
				<rect x="64.3" y="32.02" class="st3-L" width="12.19" height="13.97"/>
				<rect x="78.16" y="32.02" class="st3-L" width="12.19" height="13.97"/>
				<rect x="92.01" y="32.02" class="st3-L" width="12.19" height="13.97"/>
				<path class="st3-L" d="M22.27,34.68v11.31h13.12V32.02H24.93C23.46,32.02,22.27,33.21,22.27,34.68z"/>
				<path class="st3-L" d="M115.86,32.02h-10.46v13.97h13.12V34.68C118.52,33.21,117.33,32.02,115.86,32.02z"/>
			</g>
			<path class="st4-L" d="M29.17,62.13c-3.81,0-6.9,3.09-6.9,6.9c0,3.81,3.09,6.9,6.9,6.9c3.81,0,6.9-3.09,6.9-6.9
				C36.07,65.22,32.98,62.13,29.17,62.13z"/>
			<path class="st5-L" d="M29.17,64c-2.78,0-5.03,2.25-5.03,5.03c0,2.78,2.25,5.03,5.03,5.03c2.78,0,5.03-2.25,5.03-5.03
				C34.2,66.26,31.95,64,29.17,64z"/>
			<path class="st4-L" d="M44.16,62.13c-3.81,0-6.9,3.09-6.9,6.9c0,3.81,3.09,6.9,6.9,6.9c3.81,0,6.9-3.09,6.9-6.9
				C51.06,65.22,47.97,62.13,44.16,62.13z"/>
			<g>
				<rect x="16.91" y="54.56" class="st6-L" width="107.56" height="5.31"/>
				<rect x="16.91" y="50.79" class="st6-L" width="107.56" height="2.66"/>
			</g>
			<path class="st5-L" d="M44.16,64c-2.78,0-5.03,2.25-5.03,5.03c0,2.78,2.25,5.03,5.03,5.03c2.78,0,5.03-2.25,5.03-5.03
				C49.19,66.26,46.94,64,44.16,64z"/>
			<path class="st4-L" d="M44.16,66.77c-0.89,0-1.65,0.51-2.02,1.25H31.19c-0.37-0.74-1.14-1.25-2.02-1.25
				c-1.25,0-2.26,1.01-2.26,2.26c0,1.25,1.01,2.26,2.26,2.26c0.88,0,1.63-0.5,2.01-1.23h10.97c0.38,0.73,1.13,1.23,2.01,1.23
				c1.25,0,2.26-1.01,2.26-2.26C46.42,67.78,45.41,66.77,44.16,66.77z"/>
			<path class="st4-L" d="M95.21,62.13c-3.81,0-6.9,3.09-6.9,6.9c0,3.81,3.09,6.9,6.9,6.9c3.81,0,6.9-3.09,6.9-6.9
				C102.11,65.22,99.02,62.13,95.21,62.13z"/>
			<path class="st5-L" d="M95.21,64c-2.78,0-5.03,2.25-5.03,5.03c0,2.78,2.25,5.03,5.03,5.03c2.78,0,5.03-2.25,5.03-5.03
				C100.24,66.26,97.99,64,95.21,64z"/>
			<path class="st4-L" d="M110.2,62.13c-3.81,0-6.9,3.09-6.9,6.9c0,3.81,3.09,6.9,6.9,6.9c3.81,0,6.9-3.09,6.9-6.9
				C117.1,65.22,114.01,62.13,110.2,62.13z"/>
			<path class="st5-L" d="M110.2,64c-2.78,0-5.03,2.25-5.03,5.03c0,2.78,2.25,5.03,5.03,5.03c2.78,0,5.03-2.25,5.03-5.03
				C115.23,66.26,112.97,64,110.2,64z"/>
			<path class="st4-L" d="M110.2,66.77c-0.89,0-1.65,0.51-2.02,1.25H97.23c-0.37-0.74-1.14-1.25-2.02-1.25
				c-1.25,0-2.26,1.01-2.26,2.26c0,1.25,1.01,2.26,2.26,2.26c0.88,0,1.63-0.5,2.01-1.23h10.97c0.38,0.73,1.13,1.23,2.01,1.23
				c1.25,0,2.26-1.01,2.26-2.26C112.46,67.78,111.45,66.77,110.2,66.77z"/>
			<path class="st7-L" d="M119.77,28.02H20.62c-0.55,0-1,0.45-1,1c0,0.55,0.45,1,1,1h99.15c0.55,0,1-0.45,1-1
				C120.77,28.47,120.32,28.02,119.77,28.02z"/>
		</g>
		<g>
			<rect x="234.05" y="54.61" class="st0-L" width="7.96" height="2.99"/>
			<path class="st1-L" d="M231.48,26.7h-97.39c-2.81,0-5.08,1.69-5.08,3.78v35.96h107.56V30.49C236.56,28.4,234.29,26.7,231.48,26.7z"
				/>
			<rect x="129" y="64.51" class="st2-L" width="107.56" height="1.94"/>
			<g>
				<rect x="148.68" y="32.02" class="st3-L" width="12.19" height="13.97"/>
				<rect x="162.53" y="32.02" class="st3-L" width="12.19" height="13.97"/>
				<rect x="176.39" y="32.02" class="st3-L" width="12.19" height="13.97"/>
				<rect x="190.25" y="32.02" class="st3-L" width="12.19" height="13.97"/>
				<rect x="204.1" y="32.02" class="st3-L" width="12.19" height="13.97"/>
				<path class="st3-L" d="M134.36,34.68v11.31h13.12V32.02h-10.46C135.55,32.02,134.36,33.21,134.36,34.68z"/>
				<path class="st3-L" d="M227.96,32.02H217.5v13.97h13.12V34.68C230.62,33.21,229.42,32.02,227.96,32.02z"/>
			</g>
			<path class="st4-L" d="M141.26,62.13c-3.81,0-6.9,3.09-6.9,6.9c0,3.81,3.09,6.9,6.9,6.9c3.81,0,6.9-3.09,6.9-6.9
				C148.16,65.22,145.07,62.13,141.26,62.13z"/>
			<path class="st5-L" d="M141.26,64c-2.78,0-5.03,2.25-5.03,5.03c0,2.78,2.25,5.03,5.03,5.03c2.78,0,5.03-2.25,5.03-5.03
				C146.29,66.26,144.04,64,141.26,64z"/>
			<path class="st4-L" d="M156.25,62.13c-3.81,0-6.9,3.09-6.9,6.9c0,3.81,3.09,6.9,6.9,6.9c3.81,0,6.9-3.09,6.9-6.9
				C163.15,65.22,160.06,62.13,156.25,62.13z"/>
			<g>
				<rect x="129" y="54.56" class="st6-L" width="107.56" height="5.31"/>
				<rect x="129" y="50.79" class="st6-L" width="107.56" height="2.66"/>
			</g>
			<path class="st5-L" d="M156.25,64c-2.78,0-5.03,2.25-5.03,5.03c0,2.78,2.25,5.03,5.03,5.03c2.78,0,5.03-2.25,5.03-5.03
				C161.28,66.26,159.03,64,156.25,64z"/>
			<path class="st4-L" d="M156.25,66.77c-0.89,0-1.65,0.51-2.02,1.25h-10.94c-0.37-0.74-1.14-1.25-2.02-1.25
				c-1.25,0-2.26,1.01-2.26,2.26c0,1.25,1.01,2.26,2.26,2.26c0.88,0,1.63-0.5,2.01-1.23h10.97c0.38,0.73,1.13,1.23,2.01,1.23
				c1.25,0,2.26-1.01,2.26-2.26C158.51,67.78,157.5,66.77,156.25,66.77z"/>
			<path class="st4-L" d="M207.3,62.13c-3.81,0-6.9,3.09-6.9,6.9c0,3.81,3.09,6.9,6.9,6.9c3.81,0,6.9-3.09,6.9-6.9
				C214.2,65.22,211.11,62.13,207.3,62.13z"/>
			<path class="st5-L" d="M207.3,64c-2.78,0-5.03,2.25-5.03,5.03c0,2.78,2.25,5.03,5.03,5.03c2.78,0,5.03-2.25,5.03-5.03
				C212.33,66.26,210.08,64,207.3,64z"/>
			<path class="st4-L" d="M222.29,62.13c-3.81,0-6.9,3.09-6.9,6.9c0,3.81,3.09,6.9,6.9,6.9c3.81,0,6.9-3.09,6.9-6.9
				C229.19,65.22,226.1,62.13,222.29,62.13z"/>
			<path class="st5-L" d="M222.29,64c-2.78,0-5.03,2.25-5.03,5.03c0,2.78,2.25,5.03,5.03,5.03c2.78,0,5.03-2.25,5.03-5.03
				C227.32,66.26,225.07,64,222.29,64z"/>
			<path class="st4-L" d="M222.29,66.77c-0.89,0-1.65,0.51-2.02,1.25h-10.94c-0.37-0.74-1.14-1.25-2.02-1.25
				c-1.25,0-2.26,1.01-2.26,2.26c0,1.25,1.01,2.26,2.26,2.26c0.88,0,1.63-0.5,2.01-1.23h10.97c0.38,0.73,1.13,1.23,2.01,1.23
				c1.25,0,2.26-1.01,2.26-2.26C224.55,67.78,223.54,66.77,222.29,66.77z"/>
			<path class="st7-L" d="M231.86,28.02h-99.15c-0.55,0-1,0.45-1,1c0,0.55,0.45,1,1,1h99.15c0.55,0,1-0.45,1-1
				C232.86,28.47,232.42,28.02,231.86,28.02z"/>
		</g>
		<g>
			<path class="st6-L" d="M336.64,22.42h-90.66c-3.17,0-5.75,1.92-5.75,4.28v38.51H377.4C377.4,65.22,357.62,22.42,336.64,22.42z"/>
			<path class="st2-L" d="M240.23,62.45v2.77H377.4c0,0-0.48-1.03-1.36-2.77H240.23z"/>
			<g>
				<rect x="262.2" y="29.2" class="st8-L" width="13.78" height="15.79"/>
				<rect x="278.93" y="29.2" class="st8-L" width="13.78" height="15.79"/>
				<rect x="295.66" y="29.2" class="st8-L" width="13.78" height="15.79"/>
				<rect x="312.39" y="29.2" class="st8-L" width="13.78" height="15.79"/>
				<path class="st8-L" d="M244.95,32.2v12.78h14.83V29.2h-11.82C246.3,29.2,244.95,30.54,244.95,32.2z"/>
				<path class="st8-L" d="M339.99,29.2h-11.82v15.79c0,0,27.93-0.15,31.35,0C353.73,38.17,347.74,31.33,339.99,29.2z"/>
			</g>
			<g>
				<path class="st9-L" d="M240.23,50.79v2.66H371.1c-0.51-0.86-1.05-1.75-1.61-2.66H240.23z"/>
				<path class="st9-L" d="M240.23,54.56v5.31h134.47c-0.82-1.54-1.81-3.34-2.95-5.31H240.23z"/>
			</g>
			
				<ellipse transform="matrix(0.0251 -0.9997 0.9997 0.0251 182.0137 322.3975)" class="st4" cx="256.31" cy="67.88" rx="8.06" ry="8.06"/>
			<path class="st5-L" d="M256.31,62c-3.24,0-5.87,2.63-5.87,5.87s2.63,5.87,5.87,5.87c3.24,0,5.87-2.63,5.87-5.87
				S259.55,62,256.31,62z"/>
			<path class="st4-L" d="M273.81,59.82c-4.45,0-8.06,3.61-8.06,8.06s3.61,8.06,8.06,8.06c4.45,0,8.06-3.61,8.06-8.06
				S278.26,59.82,273.81,59.82z"/>
			<path class="st5-L" d="M273.81,62c-3.24,0-5.87,2.63-5.87,5.87s2.63,5.87,5.87,5.87c3.24,0,5.87-2.63,5.87-5.87
				S277.05,62,273.81,62z"/>
			<path class="st4-L" d="M273.81,65.24c-1.03,0-1.93,0.6-2.36,1.46h-12.78c-0.43-0.87-1.33-1.46-2.36-1.46
				c-1.46,0-2.64,1.18-2.64,2.64c0,1.46,1.18,2.64,2.64,2.64c1.02,0,1.91-0.58,2.35-1.43h12.81c0.44,0.85,1.32,1.43,2.35,1.43
				c1.46,0,2.64-1.18,2.64-2.64C276.45,66.42,275.27,65.24,273.81,65.24z"/>
			<path class="st4-L" d="M333.42,59.82c-4.45,0-8.06,3.61-8.06,8.06s3.61,8.06,8.06,8.06c4.45,0,8.06-3.61,8.06-8.06
				S337.87,59.82,333.42,59.82z"/>
			<path class="st5-L" d="M333.42,62c-3.24,0-5.87,2.63-5.87,5.87s2.63,5.87,5.87,5.87c3.24,0,5.87-2.63,5.87-5.87
				S336.66,62,333.42,62z"/>
			
				<ellipse transform="matrix(0.0826 -0.9966 0.9966 0.0826 254.291 411.9887)" class="st4-L" cx="350.92" cy="67.88" rx="8.06" ry="8.06"/>
			<path class="st5-L" d="M350.92,62c-3.24,0-5.87,2.63-5.87,5.87s2.63,5.87,5.87,5.87c3.24,0,5.87-2.63,5.87-5.87
				S354.16,62,350.92,62z"/>
			<path class="st4-L" d="M350.92,65.24c-1.03,0-1.93,0.6-2.36,1.46h-12.78c-0.43-0.87-1.33-1.46-2.36-1.46
				c-1.46,0-2.64,1.18-2.64,2.64c0,1.46,1.18,2.64,2.64,2.64c1.02,0,1.91-0.58,2.35-1.43h12.81c0.44,0.85,1.32,1.43,2.35,1.43
				c1.46,0,2.64-1.18,2.64-2.64C353.56,66.42,352.38,65.24,350.92,65.24z"/>
			<path class="st7-L" d="M342.29,25.41h-99.15c-0.55,0-1,0.45-1,1c0,0.55,0.45,1,1,1h99.15c0.55,0,1-0.45,1-1
				C343.29,25.86,342.85,25.41,342.29,25.41z"/>
			<path class="st0-L" d="M373.59,58.7c-2.16,0-12.61,0-12.61,0v7.17c0,0,13.69,0,15.74,0C378.79,65.87,375.75,58.7,373.59,58.7z"/>
		</g>
	</g>
	<rect x="4.42" y="75.93" class="st41-L" width="365.76" height="2"/>
</g>
</svg>
