<?xml version="1.0" encoding="utf-8"?>
<!-- Generator: Adobe Illustrator 26.0.2, SVG Export Plug-In . SVG Version: 6.00 Build 0)  -->
<svg version="1.1" id="Layer_1" xmlns="http://www.w3.org/2000/svg" xmlns:xlink="http://www.w3.org/1999/xlink" x="0px" y="0px"
	 viewBox="0 0 172.06 136.51" style="enable-background:new 0 0 172.06 136.51;" xml:space="preserve">
<style type="text/css">
	.st0{fill:#C7B299;stroke:#000000;stroke-width:3;stroke-miterlimit:10;}
	.st1{fill:none;stroke:#00A99D;stroke-width:4;stroke-miterlimit:10;}
	.st2{fill:#29C1E2;}
	.st3{fill:none;stroke:#29C1E2;stroke-width:5;stroke-miterlimit:10;}
	.st4{fill:none;stroke:#29C1E2;stroke-width:3;stroke-miterlimit:10;}
	.st5{fill:#FFFFFF;}
	.st6{fill:#C7B299;}
</style>
<circle class="st0" cx="41.55" cy="112.5" r="18.28"/>
<path class="st1" d="M166.3,106.45"/>
<circle class="st0" cx="134.39" cy="113.8" r="18.28"/>
<path class="st2" d="M156.63,74.6h-45.99V32.23c0-10.14,8.22-18.36,18.36-18.36h5.87c12.01,0,21.75,9.74,21.75,21.75V74.6z"/>
<path class="st2" d="M168.8,88.26H3.26v0c0-8.48,6.87-15.35,15.35-15.35h150.2V88.26z"/>
<path class="st3" d="M16.43,112.47c0-13.87,11.25-25.12,25.12-25.12s25.12,11.25,25.12,25.12"/>
<path class="st3" d="M108.9,112.47c0-13.87,11.25-25.12,25.12-25.12s25.12,11.25,25.12,25.12"/>
<rect x="67.55" y="79.23" class="st2" width="41.35" height="33.24"/>
<polyline class="st2" points="166.96,90.3 167.4,112.72 156.63,112.25 "/>
<polyline class="st2" points="145.51,86.77 167.74,85.7 167.26,112.66 "/>
<polyline class="st2" points="123.72,87.4 103.74,87.66 104.95,104.58 "/>
<polyline class="st2" points="3.26,112.5 3.26,87.17 31.47,87.17 "/>
<polyline class="st2" points="68.74,106.45 68.74,86.8 51.49,86.8 "/>
<polyline class="st2" points="3.26,112.01 17.16,112.66 16.87,96.63 "/>
<line class="st4" x1="167.4" y1="86.09" x2="167.4" y2="112.27"/>
<path class="st5" d="M141.24,45.77h-15.21c-2.67,0-4.84-2.17-4.84-4.84V29.17c0-2.67,2.17-4.84,4.84-4.84h15.21
	c2.67,0,4.84,2.17,4.84,4.84v11.76C146.08,43.6,143.91,45.77,141.24,45.77z"/>
<path class="st2" d="M168.8,72.91h-50.36v-23.8h45.01c2.95,0,5.35,2.39,5.35,5.35V72.91z"/>
<path class="st6" d="M105.58,71.91H8.9c-1.83,0-3.32-1.49-3.32-3.32V14.47c0-1.83,1.49-3.32,3.32-3.32h96.68
	c1.83,0,3.32,1.49,3.32,3.32V68.6C108.9,70.43,107.41,71.91,105.58,71.91z"/>
<path d="M59.86,112.2v2.58H48.19c-1.07,2.22-3.22,3.82-5.76,4.13v11h-2.58v-11.15c-2.18-0.51-3.99-2-4.94-3.97H23.23v-2.58h10.97
	c-0.02-0.2-0.03-0.4-0.03-0.61c0-3.48,2.41-6.39,5.67-7.16V93.28h2.58v11c3.66,0.43,6.49,3.55,6.49,7.32c0,0.21-0.01,0.41-0.03,0.61
	H59.86z"/>
<path d="M152.7,113.33v2.58h-11.68c-1.07,2.22-3.22,3.82-5.76,4.13v11h-2.58v-11.15c-2.18-0.51-3.99-2-4.94-3.97h-11.68v-2.58h10.97
	c-0.02-0.2-0.03-0.4-0.03-0.61c0-3.48,2.41-6.39,5.67-7.16V94.41h2.58v11c3.66,0.43,6.49,3.55,6.49,7.32c0,0.21-0.01,0.41-0.03,0.61
	H152.7z"/>
</svg>
